<?xml version="1.0" standalone="no"?>
<!DOCTYPE svg PUBLIC "-//W3C//DTD SVG 1.1//EN" "http://www.w3.org/Graphics/SVG/1.1/DTD/svg11.dtd" >
<svg xmlns="http://www.w3.org/2000/svg" xmlns:xlink="http://www.w3.org/1999/xlink" version="1.1">
<metadata></metadata>
<defs>
<font id="nimbussannovmedw00-regularRg" horiz-adv-x="1092" vert-adv-y="2048" >
<font-face units-per-em="2048" ascent="1638" descent="-410" />
<missing-glyph horiz-adv-x="512" />
<glyph horiz-adv-x="0" vert-adv-y="0" />
<glyph horiz-adv-x="682" />
<glyph unicode=" " horiz-adv-x="512" vert-adv-y="2457" />
<glyph unicode="!" horiz-adv-x="583" vert-adv-y="2457" d="M212 0v193h201v-193h-201zM223 947v418h180v-418l-47 -607h-88z" />
<glyph unicode="&#x22;" horiz-adv-x="669" vert-adv-y="2457" d="M93 1365h134l-28 -549h-79zM443 1365h133l-28 -549h-78z" />
<glyph unicode="#" vert-adv-y="2457" d="M48 460l15 105h241l31 216h-242l15 105h242l50 356h107l-50 -356h228l50 356h108l-50 -356h251l-15 -105h-251l-31 -216h252l-15 -105h-251l-55 -388h-107l54 388h-228l-54 -388h-108l55 388h-242zM412 565h228l30 216h-228z" />
<glyph unicode="$" vert-adv-y="2457" d="M67 416h159q3 -136 57 -206q48 -63 129 -82q25 -6 70 -10v516q-390 66 -390 367q0 134 83 232q103 122 307 132v167h102v-167q177 -14 269 -104q99 -97 97 -256h-157q-11 115 -57 165q-53 58 -152 64v-468q83 -21 119 -32q284 -86 284 -363q0 -213 -173 -323 q-84 -53 -230 -63v-205h-102v205q-214 17 -312 126q-104 117 -103 305zM249 1014q0 -113 90 -175q47 -32 143 -48v444q-89 -3 -141 -39q-92 -63 -92 -182zM584 118q98 0 168 60q78 67 78 178q0 140 -101 204q-56 35 -145 52v-494z" />
<glyph unicode="%" horiz-adv-x="1696" vert-adv-y="2457" d="M79 981q0 191 90 290q82 91 228 91q148 0 229 -102q70 -89 70 -264q0 -196 -82 -302q-77 -99 -227 -99q-308 0 -308 386zM224 973q0 -269 163 -269q98 0 138 98q29 72 29 187q0 262 -164 262q-166 0 -166 -278zM400 -66l769 1467h127l-765 -1467h-131zM999 343 q0 188 74 287q84 110 247 110q99 0 173 -51q124 -86 124 -314q0 -214 -89 -312q-81 -90 -222 -90q-159 0 -237 105q-70 93 -70 265zM1145 353q0 -272 164 -272q163 0 163 276q0 274 -160 274q-94 0 -136 -84q-31 -63 -31 -194z" />
<glyph unicode="&#x26;" horiz-adv-x="1280" vert-adv-y="2457" d="M82 356q0 183 154 305q92 73 165 106q-60 73 -96 136q-52 91 -52 181q0 114 71 191q90 98 247 98q135 0 220 -75q92 -81 92 -209q0 -216 -250 -354l247 -302q41 114 45 214h156q-4 -79 -31 -183q-27 -99 -63 -156l266 -308h-212l-145 172q-25 -43 -91 -98 q-121 -103 -307 -103q-197 0 -316 122q-100 102 -100 263zM251 362q0 -96 73 -174q74 -78 189 -78q129 0 228 98q26 25 63 75l-314 379q-7 -4 -11 -6q-92 -53 -142 -102q-86 -83 -86 -192zM409 1090q0 -66 60 -151q16 -22 77 -99q179 106 179 235q0 68 -45 117 q-42 47 -112 47q-67 0 -111 -41q-48 -44 -48 -108z" />
<glyph unicode="'" horiz-adv-x="319" vert-adv-y="2457" d="M93 1365h134l-28 -549h-79z" />
<glyph unicode="(" horiz-adv-x="600" vert-adv-y="2457" d="M82 481q0 284 108 545q80 193 190 339h125q-254 -392 -254 -881q0 -467 254 -869h-125l-9 15q-117 187 -156 271q-133 288 -133 580z" />
<glyph unicode=")" horiz-adv-x="601" vert-adv-y="2457" d="M96 -385q110 170 174 371q80 250 80 511q0 466 -254 868h125l9 -15q117 -187 156 -270q133 -288 133 -580q0 -285 -108 -546q-81 -194 -190 -339h-125z" />
<glyph unicode="*" vert-adv-y="2457" d="M254 1131l33 94l205 -78v218h104v-218l203 78l38 -94l-209 -73l127 -173l-79 -58l-133 182l-126 -182l-84 58l124 173z" />
<glyph unicode="+" vert-adv-y="2457" d="M102 605v130h380v378h130v-378h377v-130h-377v-380h-130v380h-380z" />
<glyph unicode="," horiz-adv-x="511" vert-adv-y="2457" d="M146 0v205h218v-122q0 -125 -19 -184q-46 -144 -199 -184v97q107 36 111 188h-111z" />
<glyph unicode="-" horiz-adv-x="464" vert-adv-y="2457" d="M0 427v164h464v-164h-464z" />
<glyph unicode="." horiz-adv-x="511" vert-adv-y="2457" d="M143 0v213h224v-213h-224z" />
<glyph unicode="/" horiz-adv-x="827" vert-adv-y="2457" d="M-81 -385l703 1750h133l-698 -1750h-138z" />
<glyph unicode="0" vert-adv-y="2457" d="M93 650q0 193 20 320q28 178 131 283q111 112 307 112q184 0 295 -112q103 -103 133 -287q21 -125 21 -320q0 -278 -65 -430q-104 -243 -383 -243q-293 0 -396 242q-63 149 -63 435zM264 655q0 -229 38 -352q29 -93 98 -143q64 -45 150 -45q120 0 189 89q60 79 78 229 q12 98 12 226q0 251 -39 376q-32 100 -104 150q-56 38 -137 38q-193 0 -248 -186q-37 -125 -37 -382z" />
<glyph unicode="1" vert-adv-y="2457" d="M213 990v123q193 0 291 73q67 49 104 179h127v-1365h-177v990h-101h-96h-104h-44z" />
<glyph unicode="2" vert-adv-y="2457" d="M104 0q9 196 104 328q48 66 133 133q48 37 167 112q192 120 246 182q78 91 78 207q0 114 -74 189q-70 72 -188 72q-97 0 -163 -59q-95 -83 -102 -286h-164v35q0 208 128 336q116 116 310 116q180 0 294 -96q60 -50 94 -129q36 -82 36 -175q0 -175 -122 -303 q-80 -85 -285 -209q-168 -101 -223 -159q-61 -65 -81 -148q25 0 37 1h33h630v-147h-888z" />
<glyph unicode="3" vert-adv-y="2457" d="M82 399q0 8 1 27h161q4 -104 44 -176q75 -135 251 -135q137 0 220 85q74 75 74 186q0 122 -84 193q-47 40 -105 56q-44 12 -120 12q-43 0 -81 -6v138q32 -3 56 -3q124 0 195 55q80 63 80 171q0 102 -74 167q-62 54 -163 54q-148 0 -217 -112q-45 -73 -48 -187h-159 q4 145 64 254q105 187 367 187q173 0 287 -95q113 -93 113 -259q0 -133 -88 -218q-44 -42 -99 -66q75 -19 133 -66q114 -91 114 -258q0 -191 -133 -316q-123 -114 -336 -114q-245 0 -368 161q-85 111 -85 265z" />
<glyph unicode="4" vert-adv-y="2457" d="M72 332v152l618 881h132v-896h183v-137h-183v-332h-154v332h-596zM206 469h77h81h304v387q0 152 3 282q-131 -206 -153 -237l-177 -249q-27 -39 -135 -183z" />
<glyph unicode="5" vert-adv-y="2457" d="M86 366h165q7 -79 49 -140q39 -56 105 -85q59 -27 124 -27q141 0 227 107q71 89 71 213q0 126 -73 219q-79 100 -228 100q-168 0 -262 -132l-140 7l127 711h672v-147h-550l-49 -251q-15 -82 -33 -154q97 108 274 108q180 0 298 -110q134 -125 134 -337q0 -207 -133 -343 q-130 -133 -338 -133q-250 0 -371 174q-66 94 -69 220z" />
<glyph unicode="6" vert-adv-y="2457" d="M94 652q0 373 146 554q129 160 346 160q203 0 306 -129q73 -91 83 -225h-165q-32 212 -232 212q-199 0 -278 -234q-31 -91 -44 -292q108 177 337 177q185 0 303 -120q116 -117 116 -313q0 -213 -125 -338q-131 -131 -320 -131q-172 0 -290 102q-115 99 -155 282 q-28 127 -28 295zM287 433q0 -124 65 -214q76 -104 215 -104q133 0 207 98q67 87 67 211q0 130 -66 215q-73 94 -206 94q-145 0 -223 -104q-59 -79 -59 -196z" />
<glyph unicode="7" vert-adv-y="2457" d="M128 1180v158h878v-144q-10 -12 -64 -74q-186 -213 -313 -528q-108 -270 -144 -592h-180q14 201 93 434q96 280 263 521q53 76 180 227l-77 -1l-91 -1h-545z" />
<glyph unicode="8" vert-adv-y="2457" d="M90 385q0 188 135 289q51 38 104 55q-62 25 -103 69q-84 89 -84 216q0 155 113 253q114 98 291 98q197 0 307 -112q95 -97 95 -230q0 -205 -187 -294q241 -85 241 -330q0 -198 -127 -314q-124 -112 -335 -112q-209 0 -335 121q-115 112 -115 291zM261 389q0 -130 91 -206 q81 -68 192 -68q143 0 220 88q67 78 67 185q0 122 -79 196q-81 74 -206 74q-134 0 -213 -83q-72 -76 -72 -186zM313 1006q0 -92 58 -150q67 -66 175 -66q114 0 175 67q56 61 56 149q0 105 -66 161q-65 56 -163 56q-119 0 -182 -73q-53 -60 -53 -144z" />
<glyph unicode="9" vert-adv-y="2457" d="M83 903q0 206 131 338q122 124 316 124q287 0 403 -263q63 -144 63 -404q0 -267 -71 -434q-61 -144 -173 -223q-97 -68 -236 -68q-220 0 -333 155q-62 84 -69 202h161q12 -83 52 -131q72 -84 195 -84q173 0 245 177q61 149 62 357q-39 -61 -71 -91q-104 -96 -261 -96 q-109 0 -204 50q-116 61 -171 188q-39 91 -39 203zM254 906q0 -113 55 -195q72 -107 213 -107q134 0 212 95q66 80 66 204q0 141 -71 225q-80 95 -201 95q-125 0 -202 -91q-72 -85 -72 -226z" />
<glyph unicode=":" horiz-adv-x="545" vert-adv-y="2457" d="M177 0v213h224v-213h-224zM177 777v213h224v-213h-224z" />
<glyph unicode=";" horiz-adv-x="545" vert-adv-y="2457" d="M180 0v206h218v-129q0 -155 -42 -229q-57 -102 -176 -131v95q61 24 88 76q21 39 22 112h-110zM180 785v205h218v-205h-218z" />
<glyph unicode="&#x3c;" horiz-adv-x="1024" vert-adv-y="2457" d="M68 611v152l887 425v-178l-698 -324l697 -324l1 -176z" />
<glyph unicode="=" vert-adv-y="2457" d="M102 450v130h887v-130h-887zM102 757v130h887v-130h-887z" />
<glyph unicode="&#x3e;" horiz-adv-x="1024" vert-adv-y="2457" d="M69 186v177l698 324l-697 325l-1 176l887 -425v-153z" />
<glyph unicode="?" horiz-adv-x="1022" vert-adv-y="2457" d="M102 945q8 174 68 269q65 101 183 150q80 33 180 33q189 0 302 -107q104 -99 104 -261q0 -134 -71 -230q-32 -44 -152 -161q-56 -55 -75 -88q-37 -65 -38 -213h-158q2 144 25 212q19 58 81 130q14 17 106 111q69 70 90 128q18 48 18 98q0 94 -51 157q-63 78 -183 78 q-249 0 -269 -306h-160zM421 0v194h202v-194h-202z" />
<glyph unicode="@" horiz-adv-x="1518" vert-adv-y="2457" d="M89 666q0 198 102 365q91 149 244 238q167 96 361 96q160 0 303 -69q167 -81 255 -231q74 -127 74 -275q0 -241 -185 -390q-131 -106 -261 -106q-81 0 -128 55q-13 16 -21 40q-104 -95 -216 -95q-116 0 -185 96q-47 66 -47 169q0 161 103 304q129 180 297 180 q91 0 154 -58q20 -18 36 -47l27 73h135l-170 -499q-18 -52 -18 -78q0 -52 62 -52q96 0 194 99q125 126 125 305q0 218 -170 360q-152 127 -363 127q-173 0 -318 -88q-131 -78 -206 -209q-80 -139 -80 -309q0 -247 167 -418q175 -181 430 -181q205 0 378 136q81 64 132 154 l108 -1q-37 -82 -77 -130q-110 -134 -281 -203q-128 -51 -264 -51q-206 0 -378 110q-166 105 -251 282q-68 141 -68 301zM529 524q0 -61 25 -99q29 -44 85 -44q73 0 130 62q44 47 83 153l47 130q24 67 24 105q0 54 -34 90q-31 33 -73 33q-97 0 -184 -120q-49 -68 -78 -163 q-25 -80 -25 -147z" />
<glyph unicode="A" horiz-adv-x="1297" vert-adv-y="2457" d="M12 0l536 1371h203l533 -1371h-200l-153 419h-573l-156 -419h-190zM410 565h468l-134 363q-69 184 -98 276q-31 -92 -98 -269z" />
<glyph unicode="B" horiz-adv-x="1323" vert-adv-y="2457" d="M157 0v1365h549q200 0 291 -46q91 -45 141 -135q41 -75 41 -161q0 -130 -94 -223q-43 -43 -108 -68q76 -20 119 -49q143 -97 143 -283q0 -244 -201 -350q-94 -50 -247 -50h-634zM337 157h361q186 0 250 32q110 56 110 204q0 167 -148 223q-58 22 -243 22h-330v-481z M337 784h325q133 0 197 18q76 22 114 92q25 46 25 104q0 148 -124 192q-50 18 -194 18h-343v-424z" />
<glyph unicode="C" horiz-adv-x="1383" vert-adv-y="2457" d="M90 681q0 320 187 525q172 190 460 190q281 0 442 -174q110 -119 124 -266h-182q-23 104 -93 175q-111 112 -295 112q-244 0 -367 -199q-94 -151 -94 -361q0 -224 97 -373q123 -188 363 -188q204 0 313 143q71 93 90 250h179q-17 -208 -132 -348q-161 -198 -459 -198 q-316 0 -487 224q-146 189 -146 488z" />
<glyph unicode="D" horiz-adv-x="1372" vert-adv-y="2457" d="M157 0v1365h490q171 0 268 -34q118 -41 209 -142q158 -175 158 -478q0 -364 -192 -560q-108 -109 -247 -137q-66 -14 -176 -14h-510zM337 157h295q143 0 214 24q138 47 206 216q48 117 48 306q0 266 -133 396q-74 72 -167 93q-69 16 -149 16h-314v-1051z" />
<glyph unicode="E" horiz-adv-x="1196" vert-adv-y="2457" d="M157 0v1365h946v-157h-766v-432h716v-146h-716v-473h776v-157h-956z" />
<glyph unicode="F" horiz-adv-x="1097" vert-adv-y="2457" d="M157 0v1365h897v-157h-717v-431h631v-146h-631v-631h-180z" />
<glyph unicode="G" horiz-adv-x="1469" vert-adv-y="2457" d="M90 669q0 321 186 530q177 198 478 198q278 0 438 -164q118 -121 135 -287h-177q-14 93 -77 167q-111 131 -319 131q-231 0 -363 -166q-119 -151 -119 -402q0 -230 109 -377q132 -178 373 -178q186 0 305 118q118 115 122 336h-437v146h598v-721h-115l-27 104 q-11 42 -19 67q-166 -203 -439 -203q-328 0 -507 237q-145 190 -145 464z" />
<glyph unicode="H" horiz-adv-x="1395" vert-adv-y="2457" d="M157 0v1365h180v-569h721v569h180v-1365h-180v639h-721v-639h-180z" />
<glyph unicode="I" horiz-adv-x="494" vert-adv-y="2457" d="M157 0v1365h180v-1365h-180z" />
<glyph unicode="J" horiz-adv-x="961" vert-adv-y="2457" d="M22 399q0 22 2 52h175v-50q0 -136 38 -195q56 -85 191 -85q129 0 178 83q37 61 37 235v926h180v-925q0 -125 -12 -193q-23 -132 -126 -208q-98 -71 -255 -71q-277 0 -366 188q-42 89 -42 243z" />
<glyph unicode="K" horiz-adv-x="1274" vert-adv-y="2457" d="M157 0v1365h180v-538q-1 -95 -1 -142q30 29 90 91l604 589h236l-576 -548l599 -817h-229l-497 694l-226 -215v-479h-180z" />
<glyph unicode="L" horiz-adv-x="1102" vert-adv-y="2457" d="M157 0v1365h180v-1208h725v-157h-905z" />
<glyph unicode="M" horiz-adv-x="1680" vert-adv-y="2457" d="M157 0v1365h246l320 -833q84 -219 123 -345q43 135 119 343l307 835h250v-1365h-173l2 612q1 339 22 607l-20 -55l-62 -177l-42 -114l-325 -873h-157l-340 863q-74 186 -118 343q18 -292 19 -588l2 -618h-173z" />
<glyph unicode="N" horiz-adv-x="1407" vert-adv-y="2457" d="M157 0v1365h195l510 -777q154 -234 227 -373q-10 239 -11 467l-2 683h173v-1365h-199l-487 736q-186 281 -246 407q11 -141 12 -454l1 -689h-173z" />
<glyph unicode="O" horiz-adv-x="1487" vert-adv-y="2457" d="M90 682q0 330 180 518q188 197 485 197q280 0 462 -197q180 -196 180 -514q0 -285 -140 -472q-183 -245 -515 -245q-330 0 -514 247q-138 185 -138 466zM272 686q0 -244 113 -392q68 -89 178 -135q86 -37 183 -37q193 0 317 127q152 155 152 435q0 253 -131 408 q-129 152 -333 152q-213 0 -344 -146q-135 -148 -135 -412z" />
<glyph unicode="P" horiz-adv-x="1235" vert-adv-y="2457" d="M157 0v1365h543q138 0 213 -22q123 -36 196 -143q65 -93 65 -227q0 -234 -159 -342q-77 -52 -181 -65q-41 -5 -127 -5h-370v-561h-180zM337 707h348q148 0 215 50q92 68 92 206q0 143 -107 206q-47 28 -117 35q-41 4 -109 4h-322v-501z" />
<glyph unicode="Q" horiz-adv-x="1464" vert-adv-y="2457" d="M90 683q0 318 181 516q97 106 228 154q118 43 243 43q302 0 480 -204q175 -200 175 -507q0 -221 -86 -385q-50 -94 -117 -158l180 -144l-93 -114l-208 167q-143 -82 -332 -82q-294 0 -476 203q-175 195 -175 511zM272 687q0 -238 106 -384q74 -101 194 -149 q82 -32 176 -32q97 0 187 38l-151 120l95 113l179 -149q157 162 157 442q0 247 -129 403q-129 154 -344 154q-213 0 -344 -157q-126 -150 -126 -399z" />
<glyph unicode="R" horiz-adv-x="1369" vert-adv-y="2457" d="M153 0v1365h624q172 0 268 -60q166 -103 166 -311q0 -161 -101 -258q-53 -51 -133 -78q100 -20 151 -98q38 -57 48 -149q4 -28 17 -175q15 -175 53 -216l17 -20h-206q-13 18 -23 56q-10 34 -19 213q-11 220 -104 280q-63 42 -219 42h-359v-591h-180zM333 737h340 q118 0 183 14q85 17 131 80q42 57 42 146q0 106 -63 167q-46 44 -123 56q-53 8 -122 8h-388v-471z" />
<glyph unicode="S" horiz-adv-x="1230" vert-adv-y="2457" d="M51 451h174q4 -132 69 -207q106 -122 334 -122q168 0 252 70q85 70 85 179q0 84 -53 134q-55 52 -179 88q-35 11 -162 40q-188 44 -227 57q-123 42 -181 113q-65 80 -65 203q0 182 137 291q127 100 345 100q323 0 451 -203q58 -91 63 -229h-174q-15 126 -78 191 q-85 88 -263 88q-129 0 -206 -46q-102 -61 -102 -181q0 -98 73 -140t298 -90q154 -33 220 -56q285 -98 285 -346q0 -194 -153 -312q-133 -104 -378 -104q-202 0 -346 79q-216 120 -219 403z" />
<glyph unicode="T" horiz-adv-x="1158" vert-adv-y="2457" d="M30 1208v157h1098v-157h-459v-1208h-180v1208h-459z" />
<glyph unicode="U" horiz-adv-x="1373" vert-adv-y="2457" d="M137 572v793h180v-799q0 -126 10 -184q44 -260 367 -260q234 0 311 135q40 68 48 184q3 45 3 126v798h180v-796q0 -183 -22 -261q-96 -339 -523 -339q-228 0 -356 88q-143 97 -180 276q-18 83 -18 239z" />
<glyph unicode="V" horiz-adv-x="1205" vert-adv-y="2457" d="M12 1365h200l287 -861l39 -121q40 -128 66 -231q37 135 109 352l289 861h191l-488 -1365h-206z" />
<glyph unicode="W" horiz-adv-x="1775" vert-adv-y="2457" d="M21 1365h187l202 -837q50 -206 71 -342q21 126 81 346l228 833h198l233 -852q46 -170 74 -327q20 125 69 323l210 856h181l-364 -1365h-190l-231 835q-57 208 -84 359q-30 -144 -89 -348l-229 -846h-193z" />
<glyph unicode="X" horiz-adv-x="1186" vert-adv-y="2457" d="M5 0l481 703l-451 662h216l234 -358q74 -113 109 -182q57 97 115 182l242 358h204l-454 -662l480 -703h-219l-281 424q-46 69 -88 147q-36 -56 -94 -143l-287 -428h-207z" />
<glyph unicode="Y" horiz-adv-x="1198" vert-adv-y="2457" d="M-20 1365h217l322 -510q58 -92 89 -148q32 61 84 144l320 514h206l-526 -806v-559h-180v559z" />
<glyph unicode="Z" horiz-adv-x="1193" vert-adv-y="2457" d="M53 0v153l784 973q5 6 76 86q-120 -4 -242 -4h-551v157h1002v-149l-776 -964q-8 -10 -39 -45l-45 -54q207 4 251 4h630v-157h-1090z" />
<glyph unicode="[" horiz-adv-x="601" vert-adv-y="2457" d="M145 -385v1750h362v-128h-206v-1492h206v-130h-362z" />
<glyph unicode="\" horiz-adv-x="827" vert-adv-y="2457" d="M72 1365h133l703 -1750h-138z" />
<glyph unicode="]" horiz-adv-x="601" vert-adv-y="2457" d="M94 -255h206v1492h-206v128h362v-1750h-362v130z" />
<glyph unicode="^" horiz-adv-x="1024" vert-adv-y="2457" d="M60 760l351 609h201l351 -609h-166l-287 488l-285 -488h-165z" />
<glyph unicode="_" horiz-adv-x="1024" vert-adv-y="2457" d="M0 -143h1024v-114h-1024v114z" />
<glyph unicode="`" horiz-adv-x="1024" vert-adv-y="2457" d="M259 1399h201l142 -273h-113z" />
<glyph unicode="a" horiz-adv-x="1036" vert-adv-y="2457" d="M62 253q0 195 186 270q56 22 139 35q12 2 165 20q124 16 154 58q20 28 20 74q0 173 -223 173q-137 0 -198 -71q-36 -41 -45 -132h-159q3 151 106 243q106 96 308 96q208 0 310 -97q48 -47 61 -130q6 -40 6 -104q0 -111 -6 -407q-1 -55 -1 -60q0 -56 14 -78q15 -22 50 -22 q20 0 44 10v-127q-57 -20 -114 -20q-77 0 -116 53q-26 35 -27 94q-139 -160 -358 -160q-139 0 -221 68q-95 78 -95 214zM229 267q0 -76 53 -124q49 -45 143 -45q121 0 213 72q68 52 84 113q7 27 7 83v148q-36 -26 -83 -38q-36 -9 -136 -22q-143 -18 -198 -46 q-83 -43 -83 -141z" />
<glyph unicode="b" horiz-adv-x="1159" vert-adv-y="2457" d="M144 0v1365h162v-512q103 166 327 166q199 0 323 -141q123 -139 123 -379q0 -247 -130 -391q-125 -137 -326 -137q-236 0 -327 172v-143h-152zM301 492q0 -183 82 -281q85 -103 225 -103q138 0 217 102q87 111 87 287q0 183 -87 288q-81 97 -212 97q-135 0 -220 -92 q-92 -99 -92 -298z" />
<glyph unicode="c" horiz-adv-x="1041" vert-adv-y="2457" d="M81 481q0 268 146 411q130 127 329 127q226 0 339 -140q67 -83 82 -211h-169q-16 84 -61 135q-70 80 -191 80q-162 0 -243 -131q-65 -105 -65 -258q0 -162 66 -263q80 -124 232 -124q153 0 228 124q32 54 43 129h166q-19 -142 -95 -237q-121 -152 -337 -152 q-241 0 -368 168q-102 136 -102 342z" />
<glyph unicode="d" horiz-adv-x="1159" vert-adv-y="2457" d="M80 497q0 243 122 380q127 142 323 142q157 0 257 -80q42 -33 71 -86v512h162v-1365h-153v146q-29 -58 -80 -99q-97 -76 -244 -76q-203 0 -328 137q-130 141 -130 389zM247 500q0 -179 87 -289q82 -103 219 -103q141 0 223 103q81 102 81 282q0 200 -92 298 q-86 91 -211 91q-138 0 -219 -96q-88 -103 -88 -286z" />
<glyph unicode="e" horiz-adv-x="1065" vert-adv-y="2457" d="M81 487q0 233 128 381q131 151 335 151q167 0 285 -101q128 -109 156 -310q8 -64 8 -155h-744q10 -346 311 -346q147 0 215 105q27 41 47 105h160q-78 -346 -433 -346q-240 0 -363 163q-105 139 -105 353zM250 587h575q-8 102 -50 169q-80 127 -236 127q-150 0 -226 -113 q-47 -70 -63 -183z" />
<glyph unicode="f" horiz-adv-x="573" vert-adv-y="2457" d="M11 856v134h167v65q0 96 6 136q14 91 87 143q62 43 171 43q46 0 114 -7v-140q-50 11 -93 11q-79 0 -104 -33q-19 -25 -19 -104v-114h190v-134h-190v-856h-162v856h-167z" />
<glyph unicode="g" horiz-adv-x="1133" vert-adv-y="2457" d="M79 491q0 243 126 386q125 142 317 142q130 0 221 -67q49 -36 94 -105v143h152v-882q0 -128 -17 -204q-33 -150 -141 -225q-119 -83 -302 -83q-206 0 -318 94q-82 69 -98 198h167q29 -165 255 -165q170 0 238 98q52 75 54 228l1 120q-32 -55 -60 -84q-96 -98 -257 -98 q-193 0 -313 138q-119 137 -119 366zM246 508q0 -219 106 -315q77 -69 182 -69q145 0 224 121q67 104 67 268q0 202 -100 298q-75 71 -185 71q-150 0 -226 -115q-68 -101 -68 -259z" />
<glyph unicode="h" horiz-adv-x="1101" vert-adv-y="2457" d="M144 0v1365h162v-399q0 -17 -4 -118q112 171 331 171q217 0 294 -148q38 -72 38 -228v-643h-162v623q0 131 -32 178q-54 81 -185 81q-117 0 -195 -75q-59 -57 -76 -152q-9 -50 -9 -188v-467h-162z" />
<glyph unicode="i" horiz-adv-x="449" vert-adv-y="2457" d="M143 0v990h162v-990h-162zM143 1166v199h162v-199h-162z" />
<glyph unicode="j" horiz-adv-x="449" vert-adv-y="2457" d="M-19 -254q33 -7 58 -7q66 0 87 29q18 25 18 206v1016h162v-1015q0 -134 -6 -188q-20 -185 -245 -185q-34 0 -74 6v138zM144 1166v199h162v-199h-162z" />
<glyph unicode="k" horiz-adv-x="1020" vert-adv-y="2457" d="M144 0v1365h162v-670v-75v-67q46 49 67 69l389 368h218l-393 -359l421 -631h-206l-340 518l-156 -143v-375h-162z" />
<glyph unicode="l" horiz-adv-x="449" vert-adv-y="2457" d="M143 0v1365h162v-1365h-162z" />
<glyph unicode="m" horiz-adv-x="1669" vert-adv-y="2457" d="M144 0v990h152v-143q59 79 118 116q90 56 205 56q139 0 216 -79q32 -33 58 -96q123 175 330 175q182 0 262 -123q48 -74 48 -213v-683h-162v624q0 119 -19 162q-41 96 -179 96q-97 0 -162 -54q-76 -62 -87 -168q-5 -43 -5 -136v-524h-162v636q0 143 -41 190 q-49 57 -145 57q-98 0 -169 -60q-73 -61 -89 -169q-7 -48 -7 -130v-524h-162z" />
<glyph unicode="n" horiz-adv-x="1101" vert-adv-y="2457" d="M144 0v990h152v-154q42 63 80 94q106 89 264 89q135 0 221 -69q80 -63 97 -181q7 -43 7 -129v-640h-162v583q0 166 -34 217q-53 82 -180 82q-126 0 -203 -82q-55 -58 -71 -152q-9 -57 -9 -169v-479h-162z" />
<glyph unicode="o" horiz-adv-x="1118" vert-adv-y="2457" d="M81 495q0 218 110 357q131 167 377 167q214 0 346 -146q125 -137 125 -377q0 -264 -148 -407q-121 -118 -325 -118q-235 0 -363 152q-122 144 -122 372zM248 494q0 -189 93 -293q83 -93 224 -93q125 0 203 79q104 106 104 311q0 187 -91 290q-84 94 -215 94 q-137 0 -222 -92q-96 -105 -96 -296z" />
<glyph unicode="p" horiz-adv-x="1160" vert-adv-y="2457" d="M144 -385v1375h152v-142q112 171 329 171q193 0 316 -128q139 -145 139 -402q0 -234 -123 -376q-124 -142 -321 -142q-217 0 -330 165v-521h-162zM300 495q0 -195 94 -296q85 -91 216 -91q137 0 215 96q88 108 88 285q0 185 -91 296q-80 97 -212 97q-140 0 -225 -99 t-85 -288z" />
<glyph unicode="q" horiz-adv-x="1159" vert-adv-y="2457" d="M81 489q0 257 137 401q122 129 319 129q230 0 327 -172v143h152v-1375h-162v522q-114 -166 -333 -166q-195 0 -317 138q-123 139 -123 380zM248 489q0 -180 87 -284q81 -97 216 -97q130 0 214 90q94 101 94 302q0 185 -86 283q-86 99 -218 99q-138 0 -216 -96 q-91 -111 -91 -297z" />
<glyph unicode="r" horiz-adv-x="663" vert-adv-y="2457" d="M144 0v990h152v-207q67 156 201 209q68 27 170 27v-170q-36 3 -52 3q-131 0 -215 -86q-71 -73 -86 -202q-8 -64 -8 -179v-385h-162z" />
<glyph unicode="s" horiz-adv-x="951" vert-adv-y="2457" d="M45 313h160q10 -83 45 -124q68 -81 221 -81q140 0 205 70q38 40 38 93q0 55 -38 87q-37 31 -94 49q-52 16 -117 31q-175 43 -212 55q-186 64 -186 235q0 158 139 237q94 54 238 54q223 0 327 -121q59 -69 69 -196h-163q-9 67 -35 102q-58 78 -205 78q-93 0 -146 -34 q-57 -36 -57 -104q0 -45 25 -70q31 -31 83 -46q62 -19 156 -40q207 -46 290 -106q93 -68 93 -194q0 -111 -74 -194q-108 -123 -337 -123q-233 0 -343 119q-77 84 -82 223z" />
<glyph unicode="t" horiz-adv-x="578" vert-adv-y="2457" d="M-7 856v134h167v293h162v-293h197v-134h-197v-584q0 -93 15 -118q21 -34 95 -34q41 0 87 11v-139q-63 -8 -126 -8q-157 0 -204 77q-21 35 -26 101q-3 43 -3 201v493h-167z" />
<glyph unicode="u" horiz-adv-x="1105" vert-adv-y="2457" d="M137 347v643h162v-584q0 -164 32 -215q52 -83 182 -83q168 0 248 147q39 71 39 256v479h162v-990h-152v155q-37 -61 -95 -104q-106 -80 -248 -80q-176 0 -264 108q-66 81 -66 268z" />
<glyph unicode="v" horiz-adv-x="906" vert-adv-y="2457" d="M1 990h180l178 -501q54 -152 104 -326q30 112 106 337l166 490h170l-361 -990h-175z" />
<glyph unicode="w" horiz-adv-x="1407" vert-adv-y="2457" d="M10 990h180l137 -474q43 -149 89 -336q50 234 78 342l122 468h180l143 -526q26 -98 64 -284q38 171 70 280l154 530h171l-316 -990h-173l-148 541q-29 107 -58 246q-29 -134 -58 -245l-141 -542h-177z" />
<glyph unicode="x" horiz-adv-x="945" vert-adv-y="2457" d="M-7 0l372 522l-344 468h208l158 -224q20 -28 79 -121q61 89 85 122l162 223h197l-342 -455l383 -535h-209l-213 312q-36 52 -63 98q-24 -37 -65 -98l-210 -312h-198z" />
<glyph unicode="y" horiz-adv-x="928" vert-adv-y="2457" d="M1 990h183l217 -580q22 -60 75 -229q47 150 80 244l199 565h172l-364 -958q-98 -256 -136 -318q-70 -112 -212 -112q-50 0 -95 10l-25 6v146q69 -21 105 -21q74 0 117 83q26 50 75 180z" />
<glyph unicode="z" horiz-adv-x="904" vert-adv-y="2457" d="M48 0v121l518 644q17 21 83 92q-74 -1 -93 -1h-470v134h773v-108l-532 -662q-11 -13 -74 -87q77 1 123 1h508v-134h-836z" />
<glyph unicode="{" horiz-adv-x="601" vert-adv-y="2457" d="M27 424v136q56 17 85 54q32 41 32 134v339q0 147 67 212q47 47 114 57q64 9 157 9h13v-128q-98 -3 -140 -35q-37 -28 -47 -81q-8 -39 -8 -101v-299q0 -102 -30 -157q-23 -43 -83 -75q68 -39 93 -102q20 -48 20 -136v-291q0 -101 20 -140q26 -49 85 -67q30 -9 90 -10v-128 h-14q-144 0 -195 18q-97 35 -127 143q-15 56 -15 143v310q0 103 -34 145q-27 34 -83 50z" />
<glyph unicode="|" horiz-adv-x="1024" vert-adv-y="2457" d="M423 -341v1706h178v-1706h-178z" />
<glyph unicode="}" horiz-adv-x="601" vert-adv-y="2457" d="M105 -257q98 3 140 35q37 28 47 81q8 41 8 101v299q0 102 30 157q23 43 83 76q-68 37 -94 101q-19 48 -19 136v291q0 101 -20 140q-25 49 -85 67q-30 9 -90 10v128h14q144 0 195 -18q97 -35 127 -143q15 -55 15 -143v-310q0 -103 34 -145q28 -34 83 -50v-136 q-56 -16 -85 -54q-32 -41 -32 -134v-339q0 -146 -66 -212q-48 -47 -115 -57q-64 -9 -157 -9h-13v128z" />
<glyph unicode="~" horiz-adv-x="1365" vert-adv-y="2457" d="M193 1255q106 236 281 236q76 0 236 -79q98 -48 130 -57q31 -9 57 -9q101 0 184 150l94 -74q-104 -234 -298 -234q-30 0 -72 13t-172 77q-108 53 -166 53q-61 0 -109 -49q-34 -35 -72 -101z" />
<glyph unicode="&#xa0;" horiz-adv-x="512" vert-adv-y="2457" />
<glyph unicode="&#xa2;" vert-adv-y="2457" d="M108 692q0 285 174 428q99 81 236 96v168h102v-168q172 -9 272 -107q95 -92 112 -242h-172q-30 187 -212 213v-769q102 12 164 97q44 62 58 150h162q-16 -158 -123 -270q-101 -104 -261 -112v-206h-102v206q-172 9 -282 131q-128 143 -128 385zM279 698q0 -177 73 -279 q65 -91 166 -106v762q-93 -13 -156 -93q-83 -105 -83 -284z" />
<glyph unicode="&#xa3;" vert-adv-y="2457" d="M111 597v116h120q-41 69 -55 101q-36 83 -36 173q0 185 152 295q114 83 288 83q280 0 397 -203q54 -94 53 -232h-167q-5 94 -38 161q-33 69 -110 104q-62 28 -137 28q-139 0 -216 -89q-52 -61 -52 -143q0 -88 63 -204q30 -56 39 -74h317v-116h-262q22 -68 22 -114 q0 -82 -31 -141q-42 -78 -106 -140q-5 -5 -57 -51q-8 -7 -25 -23q65 30 102 41q53 17 117 17q58 0 119 -16q18 -4 117 -35q36 -11 81 -11q99 0 182 68l81 -126q-22 -21 -79 -51q-78 -42 -187 -42q-63 0 -113 14q-21 6 -103 33q-108 36 -182 36q-65 0 -120 -28 q-31 -16 -79 -48l-88 136q79 59 114 101q95 113 95 235q0 68 -37 145h-179z" />
<glyph unicode="&#xa5;" vert-adv-y="2457" d="M52 1338h187l315 -629l310 629h177l-297 -562h236v-116h-298l-51 -101v-114h308v-116h-308v-329h-164v329h-315v116h315v114l-53 101h-302v116h240z" />
<glyph unicode="&#xa8;" horiz-adv-x="1024" vert-adv-y="2457" d="M244 1160v194h173v-194h-173zM606 1160v194h173v-194h-173z" />
<glyph unicode="&#xa9;" horiz-adv-x="1606" vert-adv-y="2457" d="M90 681q0 203 105 375q103 169 285 263q152 77 332 77q192 0 363 -105q172 -106 262 -284q78 -154 78 -325q0 -201 -105 -372q-104 -171 -283 -263q-153 -78 -324 -78q-200 0 -371 105q-172 104 -264 284q-78 153 -78 323zM198 681q0 -171 90 -319q89 -148 241 -226 q130 -67 274 -67q250 0 427 180q177 179 177 434q0 173 -89 321q-87 145 -240 225q-128 67 -267 67q-257 0 -435 -178q-85 -86 -132 -200q-46 -114 -46 -237zM405 682q0 183 115 301q106 109 283 109q172 0 271 -100q70 -71 79 -166h-127q-15 62 -56 101q-63 60 -170 60 q-141 0 -212 -107q-55 -83 -55 -198q0 -122 57 -203q70 -101 210 -101q206 0 233 220h126q-11 -129 -82 -211q-100 -114 -283 -114q-194 0 -299 129q-90 109 -90 280z" />
<glyph unicode="&#xab;" horiz-adv-x="889" vert-adv-y="2457" d="M96 431v163l298 229v-164l-198 -146l198 -150v-168zM474 428v166l292 229v-166l-192 -146l192 -150v-162z" />
<glyph unicode="&#xad;" horiz-adv-x="464" vert-adv-y="2457" d="M0 427v164h464v-164h-464z" />
<glyph unicode="&#xae;" horiz-adv-x="1606" vert-adv-y="2457" d="M90 681q0 203 105 375q103 169 285 263q152 77 332 77q192 0 363 -105q172 -106 262 -284q78 -154 78 -325q0 -201 -105 -372q-104 -171 -283 -263q-153 -78 -324 -78q-200 0 -371 105q-172 104 -264 284q-78 153 -78 323zM198 681q0 -171 90 -319q89 -148 241 -226 q130 -67 274 -67q250 0 427 180q177 179 177 434q0 173 -89 321q-87 145 -240 225q-128 67 -267 67q-257 0 -435 -178q-85 -86 -132 -200q-46 -114 -46 -237zM488 291v784h384q105 0 166 -35q104 -60 104 -183q0 -128 -118 -186q51 -20 76 -68q16 -29 22 -82q1 -10 9 -87 q9 -95 29 -116l26 -27h-151q-23 29 -27 101q-4 88 -11 124q-15 75 -68 93q-39 13 -108 13h-206v-331h-127zM615 723h194q109 0 150 22q55 31 55 104q0 83 -72 107q-35 12 -104 12h-223v-245z" />
<glyph unicode="&#xb4;" horiz-adv-x="1024" vert-adv-y="2457" d="M422 1126l142 273h201l-230 -273h-113z" />
<glyph unicode="&#xb8;" horiz-adv-x="1024" vert-adv-y="2457" d="M278 -375l35 69q67 -26 130 -26q58 0 88 33q16 19 16 44q0 27 -20 47q-27 28 -74 28q-28 0 -74 -15l-32 34l122 161h79l-85 -116q37 10 65 10q70 0 114 -34q51 -40 51 -105q0 -61 -50 -110q-61 -60 -186 -60q-84 0 -179 40z" />
<glyph unicode="&#xbb;" horiz-adv-x="889" vert-adv-y="2457" d="M123 198v163l191 145l-191 149v165l291 -231v-163zM496 195v163l196 146l-196 151v168l297 -237v-162z" />
<glyph unicode="&#x2c6;" horiz-adv-x="1024" vert-adv-y="2457" d="M225 1133l198 273h176l201 -273h-165l-128 182l-135 -182h-147z" />
<glyph unicode="&#x2da;" horiz-adv-x="1024" vert-adv-y="2457" d="M304 1301q0 89 68 152q59 53 142 53q89 0 151 -69q53 -59 53 -138q0 -92 -69 -154q-58 -53 -138 -53q-92 0 -154 69q-53 58 -53 140zM389 1300q0 -55 39 -90q34 -31 80 -31q54 0 90 40q32 34 32 80q0 52 -41 89q-34 31 -79 31q-55 0 -91 -40q-30 -34 -30 -79z" />
<glyph unicode="&#x2dc;" horiz-adv-x="1024" vert-adv-y="2457" d="M214 1162q10 92 51 145q50 67 131 67q36 0 79 -14q16 -5 111 -48q25 -11 53 -11q61 0 81 86h89q-12 -93 -53 -148q-48 -66 -125 -66q-42 0 -118 31q-104 43 -133 43q-58 0 -80 -85h-86z" />
<glyph unicode="&#x4d8;" horiz-adv-x="1470" vert-adv-y="2457" d="M69 680q0 30 3 72h1144q-20 167 -93 278q-66 101 -179 154q-97 45 -210 45q-203 0 -335 -133q-60 -61 -102 -163l-178 35q66 164 168 258q177 162 447 162q257 0 428 -145q122 -103 182 -259q56 -148 56 -311q0 -245 -113 -426q-104 -167 -282 -240q-122 -50 -270 -50 q-200 0 -353 91q-225 134 -291 427q-22 100 -22 205zM253 592q19 -165 94 -278q66 -101 178 -154q97 -45 209 -45q156 0 277 84q171 118 205 393h-963z" />
<glyph unicode="&#x4d9;" horiz-adv-x="1080" vert-adv-y="2457" d="M79 537h745q-11 346 -312 346q-147 0 -215 -105q-27 -41 -47 -105h-160q78 346 433 346q240 0 363 -163q105 -139 105 -353q0 -233 -128 -381q-131 -151 -335 -151q-167 0 -285 101q-128 109 -156 310q-8 64 -8 155zM247 403q8 -102 50 -169q80 -127 236 -127 q150 0 226 113q47 70 63 183h-575z" />
<glyph unicode="&#x2000;" horiz-adv-x="766" vert-adv-y="0" />
<glyph unicode="&#x2001;" horiz-adv-x="1532" vert-adv-y="0" />
<glyph unicode="&#x2002;" horiz-adv-x="766" vert-adv-y="0" />
<glyph unicode="&#x2003;" horiz-adv-x="1532" vert-adv-y="0" />
<glyph unicode="&#x2004;" horiz-adv-x="510" vert-adv-y="0" />
<glyph unicode="&#x2005;" horiz-adv-x="383" vert-adv-y="0" />
<glyph unicode="&#x2006;" horiz-adv-x="255" vert-adv-y="0" />
<glyph unicode="&#x2007;" horiz-adv-x="255" vert-adv-y="0" />
<glyph unicode="&#x2008;" horiz-adv-x="191" vert-adv-y="0" />
<glyph unicode="&#x2009;" horiz-adv-x="306" vert-adv-y="0" />
<glyph unicode="&#x200a;" horiz-adv-x="85" vert-adv-y="0" />
<glyph unicode="&#x2010;" horiz-adv-x="464" vert-adv-y="2457" d="M0 427v164h464v-164h-464z" />
<glyph unicode="&#x2011;" horiz-adv-x="464" vert-adv-y="2457" d="M0 427v164h464v-164h-464z" />
<glyph unicode="&#x2012;" horiz-adv-x="464" vert-adv-y="2457" d="M0 427v164h464v-164h-464z" />
<glyph unicode="&#x2013;" vert-adv-y="2457" d="M137 427v164h819v-164h-819z" />
<glyph unicode="&#x2014;" horiz-adv-x="1387" vert-adv-y="2457" d="M0 427v164h1387v-164h-1387z" />
<glyph unicode="&#x2018;" horiz-adv-x="511" vert-adv-y="2457" d="M146 897v150q0 111 25 173q52 132 193 166v-95q-106 -35 -111 -188h111v-206h-218z" />
<glyph unicode="&#x2019;" horiz-adv-x="511" vert-adv-y="2457" d="M146 877v94q106 35 110 188h-110v206h218v-150q0 -111 -25 -172q-53 -133 -193 -166z" />
<glyph unicode="&#x201a;" horiz-adv-x="511" vert-adv-y="2457" d="M146 0v206h218v-150q0 -111 -25 -173q-53 -133 -193 -166v95q106 35 110 188h-110z" />
<glyph unicode="&#x201c;" horiz-adv-x="848" vert-adv-y="2457" d="M146 908v156q0 128 50 205q59 90 158 115v-91q-104 -44 -105 -188h105v-197h-208zM496 908v161q0 132 57 212q56 79 149 105v-93q-63 -31 -85 -79q-20 -45 -19 -109h104v-197h-206z" />
<glyph unicode="&#x201d;" horiz-adv-x="848" vert-adv-y="2457" d="M146 886v94q64 31 85 79q21 45 21 109h-106v197h208v-161q0 -132 -58 -212q-56 -79 -150 -106zM496 888v92q103 44 104 188h-104v197h206v-156q0 -128 -49 -205q-59 -90 -157 -116z" />
<glyph unicode="&#x201e;" horiz-adv-x="848" vert-adv-y="2457" d="M146 0v197h208v-161q0 -132 -58 -212q-56 -79 -150 -106v94q64 31 85 79q21 45 21 109h-106zM496 0v197h206v-156q0 -129 -49 -205q-59 -91 -157 -116v92q103 44 104 188h-104z" />
<glyph unicode="&#x2022;" horiz-adv-x="1365" vert-adv-y="2457" d="M401 694q0 121 84 202q86 82 204 82q113 0 196 -83q84 -83 84 -201t-83 -201t-201 -83q-116 0 -199 82q-85 84 -85 202z" />
<glyph unicode="&#x2026;" horiz-adv-x="1532" vert-adv-y="2457" d="M143 0v213h224v-213h-224zM654 0v213h224v-213h-224zM1164 0v213h224v-213h-224z" />
<glyph unicode="&#x202f;" horiz-adv-x="306" vert-adv-y="0" />
<glyph unicode="&#x2039;" horiz-adv-x="509" vert-adv-y="2457" d="M96 422v168l291 231v-166l-193 -148l193 -145v-164z" />
<glyph unicode="&#x203a;" horiz-adv-x="509" vert-adv-y="2457" d="M123 198v164l193 145l-193 148v166l291 -231v-168z" />
<glyph unicode="&#x205f;" horiz-adv-x="383" vert-adv-y="0" />
<glyph unicode="&#x20ac;" horiz-adv-x="1120" vert-adv-y="2457" d="M2 494l50 116h100v7q0 55 2 104v7h-151l49 116h116q15 91 46 176q124 345 453 345q235 0 422 -149l-66 -151q-85 57 -130 83q-111 65 -229 65q-258 0 -324 -369h586l-51 -116h-551q-2 -44 -2 -73v-38v-7h502l-51 -116h-437q67 -366 335 -366q111 0 239 66q30 16 113 63 v-186q-173 -99 -365 -99q-342 0 -459 362q-24 75 -36 160h-161z" />
<glyph unicode="&#x2122;" horiz-adv-x="1734" vert-adv-y="2457" d="M20 1264v101h672v-101h-274v-677h-122v677h-276zM771 587v778h159l193 -470q48 -115 68 -175q21 62 65 173l186 472h162v-778h-118l1 350q1 181 9 292q-24 -65 -57 -149l-197 -493h-103l-206 488q-23 52 -54 139q7 -131 8 -274l1 -353h-117z" />
<glyph unicode="&#x25fc;" horiz-adv-x="990" vert-adv-y="1980" d="M0 0v990h990v-990h-990z" />
</font>
</defs>
</svg>
